<svg width="151" height="198" viewBox="0 0 151 198" fill="none" xmlns="http://www.w3.org/2000/svg">
<path d="M50.8734 4.69116C56.9954 3.20336 63.0602 1.65833 64.319 1.25776C65.8066 0.742754 69.3539 0.456637 74.4461 0.399414C78.7944 0.399414 84.9737 0.685531 88.2349 1.02887C91.439 1.31499 95.3868 2.11611 96.9316 2.74557C98.5337 3.3178 100.937 4.06171 102.367 4.34782C103.797 4.57672 106.715 5.32062 108.947 5.89285C111.178 6.46509 114.382 7.66678 116.099 8.58235C117.815 9.49792 121.191 11.2718 123.537 12.5308C125.94 13.7897 128.972 15.9642 130.403 17.452C131.833 18.9398 133.835 21.6293 134.865 23.4604C135.838 25.2343 136.925 26.8366 137.268 27.0083C137.612 27.1799 138.241 28.2672 138.756 29.4689C139.271 30.6133 140.129 32.6161 140.758 33.8751C141.331 35.134 141.846 36.4501 141.846 36.7362C141.846 37.0223 142.647 38.6246 143.676 40.1696C144.706 41.7719 145.736 44.1753 145.965 45.6058C146.137 47.0364 146.537 49.3254 146.766 50.7559C146.995 52.1865 147.395 53.6171 147.624 53.9032C147.91 54.1893 148.425 57.165 148.769 60.4839C149.055 63.8029 149.741 68.5524 150.199 71.0702C150.714 74.0458 151 79.5965 151 86.9783C151 94.5318 150.771 98.6519 150.313 99.5102C149.856 100.426 149.684 103.459 149.798 108.838C149.913 114.274 149.741 117.593 149.226 119.138C148.826 120.397 147.224 123.086 145.736 125.146C144.191 127.206 142.99 129.266 142.99 129.724C142.99 130.182 142.647 131.326 142.132 132.299C141.674 133.272 141.273 134.474 141.273 135.046C141.273 135.561 141.045 136.133 140.701 136.305C140.358 136.477 140.015 137.564 139.843 138.765C139.671 139.91 139.156 141.398 138.699 142.027C138.241 142.657 137.898 143.572 137.841 144.03C137.841 144.488 137.326 146.548 136.696 148.608C136.067 150.668 135.151 153.186 134.694 154.216C134.236 155.189 133.835 156.276 133.835 156.619C133.835 156.962 133.034 158.794 132.005 160.739C131.032 162.742 129.373 165.603 128.4 167.205C127.37 168.75 126.111 170.467 125.539 170.925C124.967 171.383 123.994 172.928 123.365 174.358C122.678 175.846 120.047 179.051 117.243 181.797C114.554 184.487 110.835 187.863 108.947 189.351C107.059 190.781 103.34 193.013 100.651 194.272C97.7899 195.645 94.2425 196.904 92.0683 197.248C90.0086 197.534 87.0906 197.82 85.4886 197.82C83.9438 197.82 80.7969 197.248 78.6228 196.561C76.4486 195.874 72.9585 194.501 70.8987 193.528C68.839 192.498 64.605 189.98 61.4582 187.863C58.3114 185.746 52.6471 181.111 48.8709 177.62C45.0947 174.072 40.8607 170.067 39.4303 168.579C37.8283 166.977 35.5969 163.486 33.5372 159.423C31.6491 155.818 29.4177 152.098 28.5022 151.183C27.5868 150.267 26.843 149.237 26.843 148.894C26.7858 148.551 25.6415 146.719 24.2683 144.774C22.8379 142.771 21.6936 140.997 21.6936 140.768C21.6936 140.482 21.0643 139.567 20.3205 138.594C19.6339 137.621 18.4324 135.733 17.6886 134.302C16.8876 132.871 15.9721 131.326 15.5144 130.869C15.1139 130.411 14.7134 129.037 14.6562 127.836C14.5417 126.062 14.2557 125.604 13.1686 125.261C12.4248 125.032 10.4222 123.372 8.70577 121.598C7.04653 119.767 5.50172 117.593 5.33008 116.734C5.10122 115.819 4.64349 114.617 4.24299 113.988C3.84248 113.358 2.81261 110.783 1.95438 108.265C0.924505 105.347 0.237923 102.028 0.0662772 99.1097C-0.105368 96.5918 0.0662772 93.3301 0.466784 91.8423C0.86729 89.9539 0.924505 88.8667 0.523999 88.4089C0.123492 87.8939 0.0662772 83.1444 0.295138 74.5036C0.523999 67.2363 0.86729 61.0561 1.09615 60.77C1.32501 60.4839 1.83995 57.9089 2.24046 55.0477C2.58375 52.1865 3.27033 49.497 3.67084 49.0392C4.12856 48.5815 4.52906 47.4942 4.52906 46.6359C4.52906 45.7203 4.70071 44.9192 4.98679 44.8047C5.21565 44.6903 5.55894 43.7747 5.84501 42.8019C6.07387 41.8291 6.87489 40.1696 7.61869 39.1968C8.36248 38.1668 9.39236 36.3929 9.90729 35.3056C10.4222 34.2184 11.166 32.7878 11.5665 32.1584C11.967 31.5289 13.2258 29.5833 14.3701 27.8666C15.5144 26.1499 17.9746 23.1743 19.8055 21.2287C21.6364 19.3403 25.0693 16.3647 27.4151 14.648C29.761 12.9313 32.2212 11.2146 32.8506 10.8141C33.48 10.4707 34.2238 10.0129 34.5671 9.84126C34.9103 9.72682 35.7686 9.32625 36.5696 8.98291C37.3706 8.6968 38.4005 8.18179 38.8582 7.89567C39.3159 7.60955 44.7514 6.17897 50.8734 4.69116Z" fill="black"/>
<path d="M90.0657 24.1471C90.6951 23.9182 93.8991 23.5176 97.2176 23.2887C100.536 23.0026 105.571 22.8882 108.375 22.9454C111.579 23.0026 114.268 23.4032 115.526 23.9754C116.614 24.4332 119.074 25.3488 120.962 25.921C123.88 26.8366 124.566 27.3516 125.654 29.2972C126.397 30.5561 127.484 32.6734 128.114 33.9895C128.743 35.3629 129.258 36.7934 129.258 37.1368C129.258 37.5373 130.002 39.3113 130.917 41.028C132.176 43.4886 132.634 45.2625 132.977 49.3253C133.206 52.1293 133.721 55.5055 134.179 56.7644C134.636 58.0233 134.98 60.7128 134.98 62.7728C134.98 64.8329 135.38 67.6368 135.838 69.0674C136.41 70.6697 136.696 73.6453 136.696 77.0787C136.696 80.7028 137.058 83.8501 137.783 86.5205C138.413 88.695 139.099 91.7851 139.385 93.3301C139.614 94.8179 140.015 96.1913 140.301 96.3057C140.53 96.4202 140.701 98.7663 140.701 101.513C140.701 104.317 140.93 107.521 141.159 108.723C141.388 109.868 141.731 110.84 142.017 110.84C142.246 110.84 143.619 109.639 147.624 105.404L147.453 111.985C147.224 118.394 147.166 118.623 145.221 121.427C144.134 122.972 142.36 125.49 141.273 126.977C140.072 128.58 138.413 130.01 137.097 130.582C135.495 131.212 135.037 131.67 135.323 132.414C135.552 132.986 135.838 134.989 135.952 136.877C136.124 138.994 135.838 141.741 135.266 144.03C134.751 146.09 134.121 148.665 133.893 149.752C133.606 150.84 132.577 153.701 131.547 156.047C130.517 158.393 129.258 160.968 128.8 161.769C128.285 162.57 125.997 166.175 123.651 169.78C121.019 173.729 117.643 178.078 115.012 180.653C112.608 183.056 109.233 186.032 107.516 187.291C105.8 188.607 103.054 190.324 101.509 191.125C99.9067 191.926 97.5037 193.07 96.0733 193.7C94.5285 194.386 91.5533 195.016 88.6353 195.245C84.573 195.531 83.1427 195.417 80.053 194.386C77.9933 193.757 75.4758 192.841 74.446 192.384C73.4733 191.926 71.6424 191.068 70.4409 190.553C69.2966 189.98 67.5229 189.065 66.6075 188.378C65.6348 187.749 63.7467 186.375 62.4308 185.345C61.1148 184.372 59.8561 183.514 59.57 183.514C59.3411 183.514 57.6247 182.198 55.7938 180.538C53.9057 178.879 50.4728 175.617 48.1842 173.328C45.8956 171.097 43.6069 169.208 43.1492 169.208C42.6915 169.208 42.291 168.979 42.291 168.636C42.291 168.293 41.8333 167.606 41.2611 167.034C40.7462 166.519 39.6591 165.145 38.8581 164.058C38.1143 162.971 36.5123 160.052 35.3107 157.592C34.1092 155.189 32.2783 152.213 31.2485 151.068C30.1042 149.752 29.0171 147.578 28.3877 145.232C27.7583 143.172 27.0718 139.395 26.7857 136.877C26.4996 134.359 26.0419 130.869 25.813 129.152C25.4125 126.119 25.3553 126.005 23.41 125.661C22.3229 125.49 20.6636 124.975 19.691 124.46C18.7183 124.002 16.9447 123.43 15.6859 123.201C13.9695 122.972 12.7107 122.171 10.7082 120.168C9.16339 118.623 7.79023 116.677 7.61858 115.704C7.38972 114.732 6.53149 112.557 5.67326 110.84C4.81503 109.124 3.67073 106.034 3.09858 103.974C2.41199 101.399 2.18313 99.0524 2.41199 96.2485C2.52643 94.074 3.09858 91.1556 3.61351 89.7822C4.35731 87.7794 4.81503 87.3216 6.35984 87.0355C7.56136 86.8639 8.70567 87.0355 9.39225 87.5505C10.0216 88.0083 11.3948 89.21 12.3674 90.2972C13.3973 91.3845 15.2854 93.6734 16.5442 95.3901C17.8029 97.1068 19.5766 100.14 20.5492 102.085C21.4647 104.088 22.4945 105.805 22.8378 105.976C23.1811 106.148 24.0393 107.636 24.7831 109.238C25.4697 110.898 26.2707 112.729 26.4996 113.244C26.6712 113.816 27.2434 114.274 27.7011 114.274C28.1588 114.274 29.3604 113.187 30.2758 111.813C31.2485 110.497 32.1067 108.723 32.2783 107.808C32.45 106.949 32.7933 106.148 33.1366 105.976C33.4799 105.805 33.7087 105.29 33.7087 104.832C33.7087 104.374 34.052 103.115 34.4525 102.085C34.9102 101.112 35.8257 97.908 36.5695 95.104C37.4849 91.4989 38.0571 87.0927 38.4004 80.5121C38.6864 75.3047 38.9725 70.0402 39.0297 68.7241C39.1442 66.4923 39.2586 66.3207 42.2338 65.0045C44.5796 63.9745 46.3533 62.4867 49.6718 58.71C52.0748 56.0205 54.5351 53.1593 55.1072 52.4154C55.7366 51.6715 56.9381 49.6687 57.8535 48.0092C58.7118 46.407 59.4556 44.6903 59.4556 44.2897C59.4556 43.9464 60.3138 42.0008 61.3437 40.0552C62.8313 37.194 63.6323 36.2784 65.7492 35.2484C67.1796 34.5617 68.7244 33.7606 69.1822 33.4745C69.6399 33.2456 70.4409 32.845 70.8986 32.6734C71.3563 32.5017 73.0156 31.7006 74.6176 31.0139C76.1624 30.27 79.1376 28.8966 81.1973 27.981L81.1975 27.981C83.2572 27.0654 85.8318 25.921 86.9189 25.406C88.006 24.9482 89.4363 24.376 90.0657 24.1471Z" fill="white"/>
<path d="M103.912 72.1002C105.857 69.9829 107.574 68.7813 109.805 67.9801C112.208 67.0646 114.039 66.8357 117.815 66.9501C120.505 67.0646 123.194 67.4079 123.823 67.7512C124.452 68.0946 126.054 68.6668 127.428 69.0101C128.972 69.4107 130.803 70.6124 132.691 72.3863C134.236 73.8741 135.552 75.5336 135.552 76.1058C135.552 76.6208 135.209 77.2503 134.866 77.422C134.465 77.5936 133.092 77.1359 131.833 76.5064C130.574 75.8197 127.599 74.7325 125.253 74.1602C122.908 73.5308 119.703 73.073 118.101 73.073C116.385 73.073 113.868 73.6452 111.808 74.4464C109.92 75.1903 106.83 75.8769 104.999 75.9914C103.054 76.1058 101.509 75.9914 101.395 75.6481C101.28 75.3047 102.425 73.7597 103.912 72.1002Z" fill="black"/>
<path d="M40.9754 72.7869C41.2614 72.3291 43.3784 70.8985 45.7242 69.6968L50.0154 67.4651L57.5678 67.4079C63.8042 67.3507 65.6351 67.5223 67.6377 68.4379C68.9536 69.0101 70.4984 69.6396 71.0706 69.8685C71.5855 70.0402 72.6726 71.2419 73.4736 72.5008C74.2746 73.7597 74.904 75.1903 74.904 75.6481C74.904 76.1058 74.6751 76.6208 74.3318 76.7925C73.9885 76.9642 72.6726 76.7353 71.3566 76.2775C69.9835 75.8197 67.6377 75.0758 66.0356 74.5608C64.2047 73.9886 61.1151 73.7025 57.4534 73.7025C54.3065 73.7025 50.5875 73.9314 49.1571 74.2747C47.7268 74.5608 45.3809 75.0186 43.8933 75.2475C41.6047 75.5908 41.147 75.4764 40.9182 74.6753C40.6893 74.103 40.7465 73.2447 40.9754 72.7869Z" fill="black"/>
<path d="M50.8736 79.1959C52.9333 78.1659 55.3936 77.422 58.0255 77.1931C60.1997 76.9642 63.3465 76.8497 64.8913 76.9642C66.4934 77.0786 69.068 77.5364 70.6129 77.937C72.2149 78.3948 74.3318 79.3103 75.3617 79.9398C76.3916 80.5693 77.3642 81.7709 77.5359 82.6293C77.7648 83.5449 77.7075 84.861 77.4215 85.6621C77.0782 86.5777 75.7622 87.665 73.7597 88.695C71.6999 89.725 69.1825 90.4117 66.3217 90.6978C63.9759 90.9839 60.1997 90.9839 58.0255 90.6978C55.508 90.4117 52.8189 89.6678 50.8736 88.695C48.6994 87.6077 47.5551 86.5777 47.1546 85.4905C46.7732 84.4604 46.7732 83.4304 47.1546 82.4004C47.536 81.3704 48.7757 80.3022 50.8736 79.1959Z" fill="black"/>
<path d="M104.541 79.5965C105.686 79.0815 108.203 78.5092 110.091 78.2803C111.979 78.0514 114.669 77.9942 116.099 78.1087C117.529 78.2231 120.104 78.7381 121.82 79.1959C123.709 79.7109 125.597 80.7409 126.569 81.7137C127.656 82.8582 128.114 83.9454 128.114 85.376C128.114 86.921 127.714 87.7222 126.398 88.8094C125.482 89.6105 123.194 90.6406 121.42 91.1556C119.589 91.6706 116.156 92.0711 113.81 92.0711C111.465 92.0711 108.089 91.6706 106.372 91.2128C104.541 90.6978 102.482 89.6105 101.395 88.5805C100.079 87.3216 99.5065 86.2916 99.5065 85.0899C99.5065 84.0027 100.021 82.801 100.937 81.9426C101.738 81.1415 103.34 80.1115 104.541 79.5965Z" fill="black"/>
<path d="M53.0478 92.8151C51.3885 92.3 50.3014 91.6134 50.3014 91.0984C50.3014 90.6406 50.4159 90.24 50.5875 90.24C50.7592 90.24 51.8463 90.6406 53.0478 91.1556C54.1921 91.6134 57.3389 92.3 60.028 92.5862C64.262 93.1012 65.5207 92.9867 69.4685 92.0139C71.986 91.3845 74.5035 90.6978 75.0756 90.5261C75.705 90.3544 76.0483 90.5261 76.0483 91.0984C76.0483 91.7278 74.5035 92.3 70.7845 93.1584C66.5506 94.1884 64.4908 94.3601 60.6002 94.074C57.9111 93.8451 54.5354 93.3301 53.0478 92.8151Z" fill="black"/>
<path d="M103.683 93.3301C102.653 92.8723 101.91 92.3 102.081 92.0139C102.196 91.6706 103.34 91.785 104.77 92.2428C106.143 92.7006 109.805 93.3301 112.952 93.559C117.358 93.9595 119.246 93.9023 121.248 93.2728C122.679 92.8151 124.052 92.2428 124.395 91.9567C124.681 91.6134 125.368 91.3845 125.94 91.3845C126.512 91.3845 126.97 91.5561 126.97 91.785C126.97 92.0711 126.283 92.5862 125.425 93.0439C124.567 93.4445 122.793 94.1884 121.534 94.589C119.646 95.2757 118.044 95.3329 112.38 94.8179C108.604 94.4173 104.656 93.7878 103.683 93.3301Z" fill="black"/>
<path d="M100.822 110.497C100.079 109.41 99.621 108.265 99.7926 107.979C100.021 107.636 100.422 107.407 100.822 107.35C101.223 107.35 102.31 108.323 103.226 109.524C104.141 110.726 105.285 112.328 105.686 113.129C106.086 113.93 106.372 115.418 106.372 116.391C106.372 117.421 106.144 118.279 105.8 118.279C105.457 118.279 105.228 117.478 105.228 116.563C105.228 115.361 104.77 114.503 103.683 113.644C102.768 112.958 101.509 111.584 100.822 110.497Z" fill="black"/>
<path d="M68.4959 113.301C68.3815 112.214 68.9536 111.184 70.3268 109.868C71.4139 108.838 72.6154 107.979 73.0159 107.979C73.4164 107.979 73.7597 108.323 73.7597 108.666C73.7597 109.066 73.1303 110.039 72.3293 110.84C71.5283 111.642 70.8989 112.729 70.8989 113.244C70.8989 113.816 71.8144 114.789 72.9015 115.418C74.1602 116.105 74.904 117.021 74.904 117.707C74.904 118.337 74.6751 118.966 74.3318 119.138C73.9885 119.309 73.2448 118.909 72.6154 118.279C71.986 117.65 71.0706 117.135 70.6129 117.135C70.1551 117.135 69.5258 116.62 69.1825 115.991C68.8392 115.361 68.5531 114.159 68.4959 113.301Z" fill="black"/>
<path d="M77.4787 117.135C77.2498 116.277 77.4215 115.533 77.8792 115.304C78.2797 115.075 79.5956 114.846 80.7972 114.846C82.5136 114.846 83.2574 115.189 84.6306 116.849C86.0037 118.394 86.2898 119.309 86.2326 120.969C86.061 123.029 85.9465 123.143 83.944 123.258C81.9987 123.43 81.541 123.143 79.7673 120.969C78.6802 119.653 77.6503 117.936 77.4787 117.135Z" fill="black"/>
<path d="M97.1607 119.424C97.1035 119.138 98.0762 118.222 99.2777 117.421C100.536 116.62 101.967 115.991 102.539 115.991C103.054 115.991 103.626 116.391 103.798 116.849C103.969 117.307 103.397 118.737 102.539 119.996C101.452 121.541 100.536 122.285 99.6782 122.285C98.9344 122.285 98.1334 121.77 97.7901 121.141C97.4468 120.511 97.1607 119.767 97.1607 119.424Z" fill="black"/>
<path d="M79.6529 131.269C79.8817 128.809 80.3394 126.977 80.9688 126.291C81.4837 125.661 82.2848 125.146 82.6853 125.146C83.143 125.146 83.4863 125.49 83.4863 125.833C83.4291 126.233 83.0858 127.206 82.628 128.007C82.1703 128.809 81.827 130.411 81.7698 131.555C81.7698 132.757 82.1131 134.245 82.5136 134.874C83.0286 135.733 83.0286 136.133 82.5136 136.705C81.9415 137.278 81.541 137.22 80.5683 136.305C79.4812 135.275 79.3668 134.703 79.6529 131.269Z" fill="black"/>
<path d="M113.41 126.863C113.124 126.92 113.295 126.52 113.753 126.005C114.154 125.547 114.955 125.146 115.47 125.146C115.985 125.146 117.529 125.49 118.96 125.947C120.962 126.634 121.763 127.263 122.564 128.809C123.079 129.953 123.537 131.498 123.537 132.299C123.537 133.1 123.422 134.13 123.251 134.588C123.079 135.046 122.736 135.446 122.393 135.446C122.049 135.446 121.82 134.588 121.82 133.558C121.82 132.528 121.191 130.926 120.39 129.839C119.417 128.58 118.273 127.893 116.843 127.607C115.641 127.378 114.497 127.092 114.268 127.035L114.268 127.035C113.982 126.92 113.639 126.863 113.41 126.863Z" fill="black"/>
<path d="M53.2194 132.127C53.5055 131.269 54.6498 129.724 55.6225 128.694C57.1101 127.149 57.7966 126.863 59.4559 126.977C60.7909 127.092 61.4584 127.435 61.4584 128.007C61.4584 128.465 60.829 128.923 60.028 129.037C59.227 129.152 58.0255 129.781 57.2817 130.468C56.5951 131.155 55.7369 132.642 55.3936 133.73C55.0503 134.817 54.9359 136.591 55.1075 137.564C55.2792 138.651 55.222 139.567 54.8787 139.738C54.5354 139.91 53.906 139.681 53.4483 139.28C52.8761 138.88 52.5328 137.678 52.5901 136.133C52.5901 134.817 52.8761 133.043 53.2194 132.127Z" fill="black"/>
<path d="M87.9491 130.697C87.8918 129.667 88.1779 128.522 88.6356 128.122C89.0934 127.721 89.6655 127.435 89.8944 127.435C90.1232 127.435 90.3521 128.351 90.3521 129.438C90.3521 130.64 91.0387 132.585 92.0686 134.302C92.984 135.847 93.6706 137.392 93.4989 137.735C93.3273 138.021 92.8124 138.308 92.3546 138.308C91.8969 138.308 90.6954 136.991 89.7799 135.446C88.8073 133.844 88.0063 131.727 87.9491 130.697Z" fill="black"/>
<path d="M61.2868 139.509C61.2296 136.82 61.2868 134.359 61.4012 133.901C61.5728 133.501 62.0878 133.158 62.6027 133.158C63.0604 133.158 64.3192 133.901 65.3491 134.817C66.3217 135.675 67.8093 136.648 68.6103 136.877C69.4113 137.106 70.5556 137.678 71.185 138.079C71.8144 138.536 72.6726 138.88 73.0731 138.88C73.4164 138.88 74.6179 139.223 75.6478 139.681C76.6204 140.139 78.2225 140.654 79.1951 140.883C80.1678 141.054 82.5708 141.512 84.6306 141.798C86.6903 142.142 91.3248 142.313 94.9293 142.199C99.5065 142.027 102.138 141.684 103.512 140.997C104.599 140.482 105.915 139.795 106.372 139.567C106.83 139.28 107.86 138.708 108.661 138.308C109.462 137.85 111.121 136.991 112.437 136.362C113.696 135.675 115.184 134.817 115.698 134.359C116.442 133.73 116.728 133.73 117.358 134.359C117.758 134.817 118.388 135.79 118.731 136.591C119.131 137.392 119.589 139.28 119.818 140.883C120.161 143.4 120.104 143.629 119.417 142.885C118.96 142.428 118.159 140.825 116.671 136.591L113.696 138.079C112.037 138.937 110.549 139.795 110.377 140.024C110.206 140.196 108.432 141.226 102.653 144.316H92.0686C82.628 144.259 81.0832 144.144 77.7648 143C75.705 142.313 72.6154 141.169 70.8989 140.482C69.1825 139.738 66.8366 138.594 63.747 136.591L63.4609 140.425C63.2321 143.343 62.946 144.316 62.3166 144.316C61.6301 144.316 61.4012 143.343 61.2868 139.509Z" fill="black"/>
<path d="M94.2427 185.46C96.9891 184.659 100.365 183.4 101.795 182.656C103.226 181.912 104.885 181.397 105.457 181.397C106.086 181.454 106.658 181.74 106.773 182.083C106.83 182.37 106.086 183.228 105.056 183.915C104.084 184.544 100.25 186.089 96.6458 187.234C90.9243 189.122 89.5511 189.351 86.061 189.122C82.9713 188.95 80.5683 188.264 75.4761 186.146C71.8716 184.601 68.6675 183.171 68.3242 182.885C67.9809 182.598 67.9237 182.198 68.2098 181.969C68.4387 181.683 70.4984 182.141 72.787 182.885C75.0184 183.628 78.5086 184.83 80.5111 185.574C82.4564 186.318 85.2027 186.947 86.6331 186.947C88.0635 186.947 91.4392 186.261 94.2427 185.46Z" fill="black"/>
<path d="M49.5007 82.0571C50.1301 81.4848 52.0182 80.5693 53.7346 79.9398C55.9088 79.1387 58.4263 78.8526 62.0308 78.7953C64.8344 78.7953 67.6952 78.967 68.3245 79.1387C69.3544 79.3676 69.4688 79.8254 69.2972 82.9727C69.1828 85.7766 69.3544 86.7494 70.1554 87.4933C71.1281 88.4089 71.0709 88.5233 68.3245 88.8667C66.7797 89.0955 63.0035 89.1528 60.0283 88.9811C55.966 88.8094 53.9063 88.4661 51.9038 87.4933C49.844 86.5777 49.043 85.8338 48.8141 84.6321C48.5853 83.5449 48.7569 82.801 49.5007 82.0571Z" fill="white"/>
<path d="M102.482 82.801C103.226 82.1143 104.942 81.256 106.373 80.7982C107.803 80.3976 111.122 79.997 113.811 79.997C116.5 79.9398 119.475 80.1687 122.107 81.0843L121.821 89.6678L119.132 90.0111C117.587 90.24 114.211 90.2972 111.522 90.1256C107.746 89.9539 106.087 89.6106 104.084 88.4661C102.139 87.4361 101.452 86.6922 101.395 85.4905C101.28 84.4605 101.681 83.5449 102.482 82.801Z" fill="white"/>
</svg>
