<svg width="25" height="25" viewBox="0 0 25 25" fill="none" xmlns="http://www.w3.org/2000/svg">
<g id="Frame">
<g id="Group 1000002230">
<path id="Path 2938" fill-rule="evenodd" clip-rule="evenodd" d="M17.7865 17.6695C16.7316 17.6694 15.6988 17.3697 14.811 16.8062C13.9232 16.2427 13.2177 15.4391 12.7784 14.4908C12.3391 13.5426 12.1844 12.4895 12.3327 11.4569C12.481 10.4242 12.9261 9.45536 13.6151 8.66547C13.0946 7.32286 13.0825 5.83946 13.5812 4.48877C8.82423 6.07955 5.73071 10.2455 8.19511 14.775C8.83994 15.9627 7.26235 16.7211 6.75181 15.574C6.42471 14.9115 6.21986 14.1966 6.1469 13.4629C5.49059 14.3435 5.05474 15.3653 4.87511 16.4446C4.69548 17.5239 4.77717 18.6299 5.11349 19.672C5.44981 20.714 6.03118 21.6624 6.80992 22.4394C7.58866 23.2163 8.54258 23.7998 9.59348 24.1418C10.6444 24.4838 11.7623 24.5746 12.8556 24.4069C13.9489 24.2392 14.9864 23.8177 15.883 23.1769C16.7797 22.5361 17.5099 21.6943 18.0139 20.7206C18.5178 19.7468 18.7811 18.6689 18.7822 17.5751C18.4539 17.6362 18.1206 17.6678 17.7865 17.6695Z" fill="#FF6D29"/>
<path id="Vector" d="M17.2822 7.48877C16.3922 7.48877 15.5222 7.75269 14.7822 8.24715C14.0421 8.74162 13.4654 9.44443 13.1248 10.2667C12.7842 11.089 12.6951 11.9938 12.8687 12.8667C13.0423 13.7396 13.4709 14.5414 14.1003 15.1707C14.7296 15.8001 15.5314 16.2287 16.4043 16.4023C17.2772 16.5759 18.182 16.4868 19.0043 16.1462C19.8266 15.8056 20.5294 15.2289 21.0238 14.4888C21.5183 13.7488 21.7822 12.8788 21.7822 11.9888C21.7822 10.7953 21.3081 9.6507 20.4642 8.80679C19.6203 7.96288 18.4757 7.48877 17.2822 7.48877ZM18.9089 13.3863C18.8165 13.4786 18.6912 13.5305 18.5606 13.5305C18.43 13.5305 18.3048 13.4786 18.2124 13.3863L17.0382 12.2121C16.9412 12.1125 16.8836 11.9813 16.8759 11.8426V8.97496C16.8759 8.84428 16.9278 8.71896 17.0202 8.62656C17.1126 8.53416 17.2379 8.48224 17.3686 8.48224C17.4993 8.48224 17.6246 8.53416 17.717 8.62656C17.8094 8.71896 17.8613 8.84428 17.8613 8.97496V11.6411L18.9089 12.6887C19.001 12.7809 19.0528 12.9058 19.053 13.0361C19.0532 13.1664 19.0018 13.2915 18.91 13.384L18.9089 13.3863Z" fill="black"/>
</g>
</g>
</svg>
