<svg width="25" height="25" viewBox="0 0 25 25" fill="none" xmlns="http://www.w3.org/2000/svg">
<path d="M13.7813 7.48877C13.7813 6.93649 13.3336 6.48877 12.7813 6.48877C12.2291 6.48877 11.7813 6.93649 11.7813 7.48877V8.00083C10.7576 8.25752 9.94262 9.08311 9.72789 10.1567C9.38314 11.8805 10.7016 13.4888 12.4596 13.4888H13.4956C13.9296 13.4888 14.2813 13.8406 14.2813 14.2745C14.2813 14.7085 13.9296 15.0602 13.4956 15.0602H12.276C12.0909 15.0602 11.9095 15.0089 11.7519 14.9119L11.3054 14.6371C10.8351 14.3477 10.2191 14.4943 9.92963 14.9647C9.64018 15.4351 9.78684 16.051 10.2572 16.3405L10.7037 16.6152C11.0348 16.819 11.401 16.9556 11.7813 17.0192V17.4888C11.7813 18.0411 12.2291 18.4888 12.7813 18.4888C13.3336 18.4888 13.7813 18.0411 13.7813 17.4888V17.0458C15.1856 16.9027 16.2813 15.7166 16.2813 14.2745C16.2813 12.736 15.0341 11.4888 13.4956 11.4888H12.4596C11.9637 11.4888 11.5919 11.0352 11.6891 10.549C11.7626 10.1817 12.085 9.91734 12.4596 9.91734H13.0761C13.3082 9.91734 13.5307 10.0095 13.6948 10.1736L13.8599 10.3387C14.2505 10.7293 14.8836 10.7293 15.2742 10.3387C15.6647 9.94821 15.6647 9.31504 15.2742 8.92452L15.1091 8.75941C14.7395 8.38983 14.2796 8.13126 13.7813 8.00517V7.48877Z" fill="#1CBC2C"/>
<path fill-rule="evenodd" clip-rule="evenodd" d="M2.78223 12.4888C2.78223 6.96877 7.26223 2.48877 12.7822 2.48877C18.3022 2.48877 22.7822 6.96877 22.7822 12.4888C22.7822 18.0088 18.3022 22.4888 12.7822 22.4888C7.26223 22.4888 2.78223 18.0088 2.78223 12.4888ZM4.78223 12.4888C4.78223 16.8988 8.37223 20.4888 12.7822 20.4888C17.1922 20.4888 20.7822 16.8988 20.7822 12.4888C20.7822 8.07877 17.1922 4.48877 12.7822 4.48877C8.37223 4.48877 4.78223 8.07877 4.78223 12.4888Z" fill="black"/>
</svg>
