<svg width="39" height="38" viewBox="0 0 39 38" fill="none" xmlns="http://www.w3.org/2000/svg">
<path d="M19.204 0.844971C11.2717 0.844971 8.95179 0.852941 8.50084 0.889374C6.873 1.02116 5.86005 1.27079 4.7565 1.80591C3.90605 2.21722 3.23533 2.69399 2.57338 3.36232C1.36783 4.58115 0.637201 6.08063 0.372712 7.86304C0.244121 8.72835 0.206712 8.90482 0.199114 13.3247C0.196191 14.798 0.199114 16.737 0.199114 19.3377C0.199114 27.0571 0.207881 29.3143 0.245874 29.7527C0.377388 31.2954 0.625803 32.266 1.15186 33.3277C2.15721 35.3601 4.07731 36.8857 6.33934 37.455C7.12258 37.6514 7.98765 37.7596 9.09821 37.8108C9.56874 37.8307 14.3646 37.845 19.1634 37.845C23.9622 37.845 28.761 37.8393 29.2198 37.8165C30.5057 37.7576 31.2524 37.66 32.078 37.4522C34.3547 36.88 36.2397 35.3771 37.2655 33.3164C37.7814 32.2803 38.0429 31.2726 38.1613 29.8105C38.187 29.4917 38.1978 24.4089 38.1978 19.3329C38.1978 14.256 38.1861 9.18263 38.1604 8.86383C38.0406 7.37802 37.779 6.37893 37.2465 5.32292C36.8096 4.45847 36.3245 3.81291 35.6201 3.15283C34.3632 1.98353 32.8259 1.27193 30.9941 1.01462C30.1065 0.889659 29.9297 0.852656 25.3881 0.844971H19.204Z" fill="url(#paint0_radial_1878_18462)"/>
<path d="M19.204 0.844971C11.2717 0.844971 8.95179 0.852941 8.50084 0.889374C6.873 1.02116 5.86005 1.27079 4.7565 1.80591C3.90605 2.21722 3.23533 2.69399 2.57338 3.36232C1.36783 4.58115 0.637201 6.08063 0.372712 7.86304C0.244121 8.72835 0.206712 8.90482 0.199114 13.3247C0.196191 14.798 0.199114 16.737 0.199114 19.3377C0.199114 27.0571 0.207881 29.3143 0.245874 29.7527C0.377388 31.2954 0.625803 32.266 1.15186 33.3277C2.15721 35.3601 4.07731 36.8857 6.33934 37.455C7.12258 37.6514 7.98765 37.7596 9.09821 37.8108C9.56874 37.8307 14.3646 37.845 19.1634 37.845C23.9622 37.845 28.761 37.8393 29.2198 37.8165C30.5057 37.7576 31.2524 37.66 32.078 37.4522C34.3547 36.88 36.2397 35.3771 37.2655 33.3164C37.7814 32.2803 38.0429 31.2726 38.1613 29.8105C38.187 29.4917 38.1978 24.4089 38.1978 19.3329C38.1978 14.256 38.1861 9.18263 38.1604 8.86383C38.0406 7.37802 37.779 6.37893 37.2465 5.32292C36.8096 4.45847 36.3245 3.81291 35.6201 3.15283C34.3632 1.98353 32.8259 1.27193 30.9941 1.01462C30.1065 0.889659 29.9297 0.852656 25.3881 0.844971H19.204Z" fill="url(#paint1_radial_1878_18462)"/>
<path d="M19.1952 5.68384C15.3854 5.68384 14.9073 5.70007 13.411 5.76639C11.9176 5.83299 10.8982 6.06327 10.0062 6.40113C9.0836 6.7501 8.30094 7.21691 7.52121 7.97661C6.7409 8.73603 6.2616 9.49829 5.90213 10.3966C5.55435 11.2656 5.31763 12.2587 5.25041 13.7127C5.18348 15.17 5.16595 15.636 5.16595 19.3465C5.16595 23.0571 5.1829 23.5213 5.2507 24.9787C5.31938 26.4332 5.55581 27.426 5.90243 28.2947C6.26102 29.1934 6.74031 29.9556 7.52034 30.715C8.29978 31.475 9.08243 31.943 10.0045 32.2919C10.897 32.6298 11.9167 32.8601 13.4098 32.9267C14.9061 32.993 15.384 33.0092 19.1935 33.0092C23.0036 33.0092 23.4803 32.993 24.9766 32.9267C26.47 32.8601 27.4906 32.6298 28.3831 32.2919C29.3054 31.943 30.0869 31.475 30.8664 30.715C31.6467 29.9556 32.126 29.1934 32.4854 28.295C32.8303 27.426 33.067 26.4329 33.1372 24.979C33.2044 23.5216 33.2219 23.0571 33.2219 19.3465C33.2219 15.636 33.2044 15.1703 33.1372 13.713C33.067 12.2584 32.8303 11.2656 32.4854 10.3969C32.126 9.49829 31.6467 8.73603 30.8664 7.97661C30.0861 7.21663 29.3057 6.74982 28.3822 6.40113C27.4879 6.06327 26.468 5.83299 24.9745 5.76639C23.4782 5.70007 23.0018 5.68384 19.1909 5.68384H19.1952ZM17.9368 8.14597C18.3103 8.1454 18.7271 8.14597 19.1952 8.14597C22.9408 8.14597 23.3847 8.15907 24.8638 8.22453C26.2315 8.28545 26.9738 8.50803 27.4683 8.69504C28.123 8.94268 28.5897 9.2387 29.0804 9.7169C29.5714 10.1951 29.8753 10.6505 30.1302 11.2881C30.3222 11.7691 30.551 12.4921 30.6133 13.8242C30.6805 15.2645 30.6951 15.6972 30.6951 19.3434C30.6951 22.9896 30.6805 23.4223 30.6133 24.8626C30.5507 26.1947 30.3222 26.9177 30.1302 27.3987C29.8759 28.0363 29.5714 28.4903 29.0804 28.9682C28.5894 29.4464 28.1233 29.7424 27.4683 29.9901C26.9744 30.1779 26.2315 30.3999 24.8638 30.4609C23.385 30.5263 22.9408 30.5406 19.1952 30.5406C15.4494 30.5406 15.0055 30.5263 13.5267 30.4609C12.159 30.3994 11.4167 30.1768 10.9219 29.9898C10.2672 29.7421 9.79962 29.4461 9.30863 28.9679C8.81765 28.4897 8.5137 28.0354 8.25886 27.3976C8.06685 26.9165 7.83802 26.1935 7.77577 24.8614C7.70855 23.4212 7.6951 22.9885 7.6951 19.34C7.6951 15.6915 7.70855 15.2611 7.77577 13.8208C7.83831 12.4887 8.06685 11.7657 8.25886 11.2841C8.51312 10.6465 8.81765 10.1911 9.30863 9.71291C9.79962 9.23472 10.2672 8.93869 10.9219 8.69049C11.4164 8.50263 12.159 8.28061 13.5267 8.21941C14.8208 8.16248 15.3223 8.1454 17.9368 8.14256V8.14597ZM26.6833 10.4145C25.754 10.4145 25 11.1481 25 12.0535C25 12.9587 25.754 13.693 26.6833 13.693C27.6127 13.693 28.3667 12.9587 28.3667 12.0535C28.3667 11.1483 27.6127 10.414 26.6833 10.414V10.4145ZM19.1952 12.3302C15.2168 12.3302 11.9912 15.4717 11.9912 19.3465C11.9912 23.2213 15.2168 26.3615 19.1952 26.3615C23.1737 26.3615 26.3981 23.2213 26.3981 19.3465C26.3981 15.4717 23.1737 12.3302 19.1952 12.3302ZM19.1952 14.7923C21.7776 14.7923 23.8713 16.8312 23.8713 19.3465C23.8713 21.8616 21.7776 23.9008 19.1952 23.9008C16.6126 23.9008 14.5192 21.8616 14.5192 19.3465C14.5192 16.8312 16.6126 14.7923 19.1952 14.7923Z" fill="white"/>
<defs>
<radialGradient id="paint0_radial_1878_18462" cx="0" cy="0" r="1" gradientUnits="userSpaceOnUse" gradientTransform="translate(10.2916 40.6947) rotate(-90) scale(36.6697 35.0275)">
<stop stop-color="#FFDD55"/>
<stop offset="0.1" stop-color="#FFDD55"/>
<stop offset="0.5" stop-color="#FF543E"/>
<stop offset="1" stop-color="#C837AB"/>
</radialGradient>
<radialGradient id="paint1_radial_1878_18462" cx="0" cy="0" r="1" gradientUnits="userSpaceOnUse" gradientTransform="translate(-6.16739 3.51039) rotate(78.3829) scale(16.4088 69.3196)">
<stop stop-color="#3771C8"/>
<stop offset="0.128" stop-color="#3771C8"/>
<stop offset="1" stop-color="#6600FF" stop-opacity="0"/>
</radialGradient>
</defs>
</svg>
