<svg width="45" height="44" viewBox="0 0 45 44" fill="none" xmlns="http://www.w3.org/2000/svg">
<mask id="mask0_2_16" style="mask-type:alpha" maskUnits="userSpaceOnUse" x="0" y="0" width="45" height="44">
<rect width="45" height="44" fill="#D9D9D9"/>
</mask>
<g mask="url(#mask0_2_16)">
<path d="M-149.982 1.31914C-155.349 1.31914 -160.496 3.47105 -164.291 7.30148C-168.086 11.1319 -170.218 16.3271 -170.218 21.7441C-170.218 27.1612 -168.086 32.3564 -164.291 36.1868C-160.496 40.0172 -155.349 42.1691 -149.982 42.1691C-144.616 42.1691 -139.469 40.0172 -135.674 36.1868C-131.879 32.3564 -129.747 27.1612 -129.747 21.7441C-129.747 16.3271 -131.879 11.1319 -135.674 7.30148C-139.469 3.47105 -144.616 1.31914 -149.982 1.31914Z" fill="#039BE5"/>
<path d="M-147.243 27.1578H-142.006L-141.184 21.7882H-147.244V18.8535C-147.244 16.6228 -146.522 14.6448 -144.455 14.6448H-141.133V9.95891C-141.717 9.87936 -142.951 9.70521 -145.283 9.70521C-150.154 9.70521 -153.009 12.3013 -153.009 18.216V21.7882H-158.016V27.1578H-153.009V41.9165C-152.018 42.067 -151.013 42.1691 -149.982 42.1691C-149.05 42.1691 -148.141 42.0831 -147.243 41.9606V27.1578Z" fill="white"/>
<path d="M-63.7155 0.244141C-69.3648 0.244141 -74.7826 2.50931 -78.7772 6.54135C-82.7718 10.5734 -85.016 16.042 -85.016 21.7441C-85.016 27.4463 -82.7718 32.9149 -78.7772 36.9469C-74.7826 40.979 -69.3648 43.2441 -63.7155 43.2441C-58.0663 43.2441 -52.6484 40.979 -48.6538 36.9469C-44.6592 32.9149 -42.4151 27.4463 -42.4151 21.7441C-42.4151 16.042 -44.6592 10.5734 -48.6538 6.54135C-52.6484 2.50931 -58.0663 0.244141 -63.7155 0.244141Z" fill="#29B6F6"/>
<path d="M-53.1186 12.0691L-57.1081 32.6296C-57.1081 32.6296 -57.2796 33.5691 -58.4341 33.5691C-59.0475 33.5691 -59.3639 33.2746 -59.3639 33.2746L-68.0054 26.0366L-72.2336 23.8855L-77.6599 22.4289C-77.6599 22.4289 -78.6258 22.1473 -78.6258 21.341C-78.6258 20.6691 -77.6322 20.3488 -77.6322 20.3488L-54.9302 11.2457C-54.9302 11.2457 -54.2368 10.9931 -53.7309 10.9941C-53.42 10.9941 -53.0653 11.1285 -53.0653 11.5316C-53.0653 11.8004 -53.1186 12.0691 -53.1186 12.0691Z" fill="white"/>
<path d="M-64.7805 28.737L-68.4293 32.3641C-68.4293 32.3641 -68.588 32.4877 -68.7999 32.4931C-68.8734 32.4952 -68.9522 32.4834 -69.0332 32.4468L-68.0065 26.0345L-64.7805 28.737Z" fill="white"/>
<path d="M-57.4351 15.5048C-57.6151 15.2683 -57.9474 15.2253 -58.1817 15.4049L-72.2357 23.8941C-72.2357 23.8941 -69.9928 30.228 -69.6509 31.3245C-69.308 32.4221 -69.0332 32.4468 -69.0332 32.4468L-68.0054 26.0366L-57.5352 16.2573C-57.3009 16.0778 -57.2572 15.7413 -57.4351 15.5048Z" fill="#29B6F6"/>
<path fill-rule="evenodd" clip-rule="evenodd" d="M8.60376 2.39414H36.4978C39.3829 2.39414 41.7217 4.75484 41.7217 7.66594V35.8213C41.7217 38.7334 39.3829 41.0941 36.4988 41.0941H8.60376C5.71968 41.0941 3.38087 38.7334 3.38087 35.8223V7.66594C3.38087 4.75484 5.71968 2.39414 8.60376 2.39414Z" fill="#212121"/>
<path fill-rule="evenodd" clip-rule="evenodd" d="M28.0979 18.0967C29.7764 19.3071 31.833 20.0188 34.0535 20.0188V15.7069C33.6328 15.7069 33.2143 15.6629 32.8032 15.5747V18.9685C30.5826 18.9685 28.5271 18.2558 26.8476 17.0464V25.8442C26.8476 30.2452 23.3107 33.8132 18.9483 33.8132C17.321 33.8132 15.8076 33.3165 14.5509 32.4651C15.9854 33.9443 17.9855 34.8624 20.1986 34.8624C24.561 34.8624 28.0979 31.2944 28.0979 26.8934V18.0967ZM29.6411 13.7472C28.7838 12.8023 28.2204 11.58 28.0979 10.2287V9.67404H26.9126C27.2108 11.3908 28.2289 12.8582 29.6411 13.7472ZM17.3103 29.0885C16.831 28.4543 16.5723 27.6792 16.5733 26.8816C16.5733 24.8681 18.1911 23.2362 20.1869 23.2362C20.5586 23.2362 20.9282 23.2932 21.2829 23.4072V18.9997C20.8686 18.9427 20.4511 18.918 20.0325 18.9266V22.3569C19.6779 22.2429 19.3083 22.186 18.9355 22.186C16.9397 22.186 15.3219 23.8178 15.3219 25.8313C15.323 27.2557 16.1313 28.4887 17.3103 29.0885Z" fill="#EC407A"/>
<path fill-rule="evenodd" clip-rule="evenodd" d="M26.8476 17.0464C28.5271 18.2558 30.5826 18.9685 32.8032 18.9685V15.5747C31.5635 15.3081 30.4665 14.6556 29.6411 13.7472C28.2289 12.8582 27.2108 11.3908 26.9126 9.67404H23.8006V26.8934C23.7931 28.9004 22.1785 30.5258 20.1869 30.5258C19.0133 30.5258 17.9706 29.9625 17.3103 29.0885C16.1313 28.4887 15.323 27.2557 15.3219 25.8313C15.3219 23.8178 16.9397 22.186 18.9355 22.186C19.3179 22.186 19.6864 22.2462 20.0325 22.3569V18.9266C15.7469 19.0158 12.3015 22.5493 12.3015 26.8945C12.3015 29.0638 13.1599 31.03 14.553 32.4662C15.8097 33.3176 17.3231 33.8142 18.9505 33.8142C23.3128 33.8142 26.8497 30.2463 26.8497 25.8453L26.8476 17.0464Z" fill="white"/>
<path fill-rule="evenodd" clip-rule="evenodd" d="M32.8032 15.5747V14.6577C31.6849 14.6599 30.5901 14.3449 29.6411 13.7472C30.4804 14.6749 31.5859 15.3124 32.8032 15.5747ZM26.9126 9.67404C26.8838 9.50957 26.8625 9.34509 26.8476 9.17847V8.62376H22.5492V25.8442C22.5428 27.8512 20.9271 29.4766 18.9355 29.4766C18.3508 29.4766 17.7991 29.3379 17.3103 29.0885C17.9706 29.9625 19.0133 30.5258 20.1869 30.5258C22.1785 30.5258 23.7931 28.9004 23.8006 26.8934V9.67404H26.9126ZM20.0325 18.9266V17.9505C19.6736 17.901 19.3115 17.8763 18.9483 17.8763C14.5849 17.8763 11.049 21.4442 11.049 25.8453C11.049 28.6048 12.4389 31.0354 14.5509 32.4651C13.1578 31.0289 12.2994 29.0638 12.2994 26.8945C12.2994 22.5493 15.7469 19.0158 20.0325 18.9266Z" fill="#81D4FA"/>
<path d="M127.988 9.30532C126.579 9.93527 125.064 10.3556 123.465 10.5545C125.091 9.58052 126.341 8.02714 126.928 6.19212C125.407 7.09189 123.722 7.75302 121.93 8.10132C120.498 6.56944 118.457 5.61914 116.194 5.61914C111.849 5.61914 108.327 9.14299 108.327 13.4881C108.327 14.103 108.398 14.7018 108.533 15.2834C101.996 14.9523 96.1976 11.8154 92.3188 7.05534C91.6371 8.21849 91.2537 9.58052 91.2537 11.0178C91.2537 13.7494 92.6393 16.1541 94.7523 17.571C93.4626 17.5312 92.2485 17.1689 91.1856 16.5884C91.1856 16.6121 91.1856 16.6476 91.1856 16.6809C91.1856 20.4982 93.8982 23.677 97.4937 24.4005C96.8366 24.5821 96.1422 24.6832 95.4265 24.6832C94.9185 24.6832 94.4233 24.6251 93.944 24.5381C94.9451 27.6577 97.8494 29.9378 101.291 30.0055C98.5982 32.1125 95.2071 33.3746 91.52 33.3746C90.8831 33.3746 90.2601 33.338 89.6445 33.2628C93.1282 35.4891 97.2647 36.7941 101.705 36.7941C116.173 36.7941 124.088 24.8014 124.088 14.3976C124.088 14.0568 124.078 13.7171 124.062 13.3817C125.606 12.2809 126.937 10.892 127.988 9.30532Z" fill="#03A9F4"/>
<path d="M215.533 32.3866C215.107 34.6441 213.297 36.3641 211.06 36.6866C207.546 37.2241 201.688 37.8691 195.085 37.8691C188.588 37.8691 182.731 37.2241 179.11 36.6866C176.873 36.3641 175.062 34.6441 174.636 32.3866C174.21 29.9141 173.784 26.2591 173.784 21.7441C173.784 17.2291 174.21 13.5741 174.636 11.1016C175.062 8.84414 176.873 7.12414 179.11 6.80164C182.624 6.26414 188.482 5.61914 195.085 5.61914C201.688 5.61914 207.439 6.26414 211.06 6.80164C213.297 7.12414 215.107 8.84414 215.533 11.1016C215.959 13.5741 216.492 17.2291 216.492 21.7441C216.385 26.2591 215.959 29.9141 215.533 32.3866Z" fill="#FF3D00"/>
<path d="M190.825 29.2691V14.2191L203.605 21.7441L190.825 29.2691Z" fill="white"/>
<path d="M298.392 8.84414C298.392 8.84414 293.509 4.98704 287.742 4.54414L287.222 5.59334C292.437 6.88119 294.829 8.72697 297.327 10.9941C293.019 8.77427 288.765 6.69414 281.352 6.69414C273.938 6.69414 269.684 8.77427 265.376 10.9941C267.875 8.72697 270.721 6.67802 275.481 5.59334L274.962 4.54414C268.911 5.12142 264.311 8.84414 264.311 8.84414C264.311 8.84414 258.857 16.826 257.921 32.4941C263.419 38.8936 271.767 38.9441 271.767 38.9441L273.512 36.5953C270.549 35.5557 267.203 33.6992 264.311 30.3441C267.76 32.9779 272.965 35.7191 281.352 35.7191C289.739 35.7191 294.944 32.9779 298.392 30.3441C295.501 33.6992 292.154 35.5557 289.191 36.5953L290.937 38.9441C290.937 38.9441 299.285 38.8936 304.782 32.4941C303.846 16.826 298.392 8.84414 298.392 8.84414ZM274.429 28.1941C272.37 28.1941 270.702 26.2688 270.702 23.8941C270.702 21.5195 272.37 19.5941 274.429 19.5941C276.488 19.5941 278.157 21.5195 278.157 23.8941C278.157 26.2688 276.488 28.1941 274.429 28.1941ZM288.274 28.1941C286.216 28.1941 284.547 26.2688 284.547 23.8941C284.547 21.5195 286.216 19.5941 288.274 19.5941C290.333 19.5941 292.002 21.5195 292.002 23.8941C292.002 26.2688 290.333 28.1941 288.274 28.1941Z" fill="#6B53FF"/>
</g>
</svg>
