<svg width="47" height="45" viewBox="0 0 47 45" fill="none" xmlns="http://www.w3.org/2000/svg">
<mask id="mask0_1_6" style="mask-type:alpha" maskUnits="userSpaceOnUse" x="0" y="0" width="47" height="45">
<rect width="47" height="45" fill="#D9D9D9"/>
</mask>
<g mask="url(#mask0_1_6)">
<path d="M0.111891 3.663L17.8305 26.0971L0 44.337H4.01292L19.6235 28.3677L32.2364 44.337H45.8925L27.177 20.641L43.7735 3.663H39.7605L25.384 18.3704L13.768 3.663H0.111891ZM6.01319 6.46206H12.2869L39.9903 41.5375H33.7166L6.01319 6.46206Z" fill="black"/>
<path d="M84.2911 0C77.8744 0 71.7205 2.52856 67.1832 7.02944C62.6459 11.5303 60.0969 17.6348 60.0969 24C60.0969 30.3652 62.6459 36.4697 67.1832 40.9706C71.7205 45.4714 77.8744 48 84.2911 48C90.7078 48 96.8617 45.4714 101.399 40.9706C105.936 36.4697 108.485 30.3652 108.485 24C108.485 17.6348 105.936 11.5303 101.399 7.02944C96.8617 2.52856 90.7078 0 84.2911 0Z" fill="#29B6F6"/>
<path d="M96.3277 13.2L91.7962 36.1512C91.7962 36.1512 91.6014 37.2 90.2901 37.2C89.5933 37.2 89.234 36.8712 89.234 36.8712L79.4184 28.7916L74.6158 26.3904L68.4524 24.7644C68.4524 24.7644 67.3551 24.45 67.3551 23.55C67.3551 22.8 68.4838 22.4424 68.4838 22.4424L94.27 12.2808C94.27 12.2808 95.0576 11.9988 95.6322 12C95.9854 12 96.3882 12.15 96.3882 12.6C96.3882 12.9 96.3277 13.2 96.3277 13.2Z" fill="white"/>
<path d="M83.0814 31.806L78.9369 35.8548C78.9369 35.8548 78.7567 35.9928 78.5159 35.9988C78.4325 36.0012 78.343 35.988 78.251 35.9472L79.4172 28.7892L83.0814 31.806Z" fill="#B0BEC5"/>
<path d="M91.4248 17.0352C91.2203 16.7712 90.8429 16.7232 90.5768 16.9236L74.6134 26.4C74.6134 26.4 77.1611 33.4704 77.5494 34.6944C77.9389 35.9196 78.251 35.9472 78.251 35.9472L79.4172 28.7892L91.3111 17.8752C91.5772 17.6748 91.6268 17.2992 91.4248 17.0352Z" fill="#CFD8DC"/>
<path d="M171.078 9.6C171.078 9.6 165.532 5.2944 158.981 4.8L158.391 5.9712C164.313 7.4088 167.031 9.4692 169.868 12C164.975 9.522 160.144 7.2 151.723 7.2C143.302 7.2 138.47 9.522 133.577 12C136.415 9.4692 139.647 7.182 145.055 5.9712L144.465 4.8C137.592 5.4444 132.367 9.6 132.367 9.6C132.367 9.6 126.172 18.51 125.109 36C131.354 43.1436 140.835 43.2 140.835 43.2L142.818 40.578C139.453 39.4176 135.652 37.3452 132.367 33.6C136.284 36.54 142.196 39.6 151.723 39.6C161.249 39.6 167.161 36.54 171.078 33.6C167.794 37.3452 163.993 39.4176 160.628 40.578L162.61 43.2C162.61 43.2 172.092 43.1436 178.336 36C177.273 18.51 171.078 9.6 171.078 9.6ZM143.86 31.2C141.521 31.2 139.626 29.0508 139.626 26.4C139.626 23.7492 141.521 21.6 143.86 21.6C146.198 21.6 148.094 23.7492 148.094 26.4C148.094 29.0508 146.198 31.2 143.86 31.2ZM159.586 31.2C157.248 31.2 155.352 29.0508 155.352 26.4C155.352 23.7492 157.248 21.6 159.586 21.6C161.924 21.6 163.82 23.7492 163.82 26.4C163.82 29.0508 161.924 31.2 159.586 31.2Z" fill="#8C9EFF"/>
<path d="M242.381 35.88C241.897 38.4 239.841 40.32 237.3 40.68C233.308 41.28 226.655 42 219.155 42C211.775 42 205.122 41.28 201.009 40.68C198.468 40.32 196.412 38.4 195.928 35.88C195.444 33.12 194.96 29.04 194.96 24C194.96 18.96 195.444 14.88 195.928 12.12C196.412 9.6 198.468 7.68 201.009 7.32C205.001 6.72 211.654 6 219.155 6C226.655 6 233.187 6.72 237.3 7.32C239.841 7.68 241.897 9.6 242.381 12.12C242.865 14.88 243.47 18.96 243.47 24C243.349 29.04 242.865 33.12 242.381 35.88Z" fill="#FF3D00"/>
<path d="M214.316 32.4V15.6L228.832 24L214.316 32.4Z" fill="white"/>
<path fill-rule="evenodd" clip-rule="evenodd" d="M271.169 2.4H303.875C307.258 2.4 310 5.0352 310 8.2848V39.714C310 42.9648 307.258 45.6 303.876 45.6H271.169C267.788 45.6 265.046 42.9648 265.046 39.7152V8.2848C265.046 5.0352 267.788 2.4 271.169 2.4Z" fill="#212121"/>
<path fill-rule="evenodd" clip-rule="evenodd" d="M294.026 19.9284C295.994 21.2796 298.405 22.074 301.009 22.074V17.2608C300.516 17.2608 300.025 17.2116 299.543 17.1132V20.9016C296.939 20.9016 294.529 20.106 292.56 18.756V28.5768C292.56 33.4896 288.413 37.4724 283.298 37.4724C281.39 37.4724 279.616 36.918 278.142 35.9676C279.824 37.6188 282.169 38.6436 284.764 38.6436C289.879 38.6436 294.026 34.6608 294.026 29.748V19.9284ZM295.836 15.0732C294.83 14.0184 294.17 12.654 294.026 11.1456V10.5264H292.636C292.986 12.4428 294.18 14.0808 295.836 15.0732ZM281.378 32.1984C280.816 31.4904 280.512 30.6252 280.514 29.7348C280.514 27.4872 282.41 25.6656 284.751 25.6656C285.186 25.6656 285.62 25.7292 286.036 25.8564V20.9364C285.55 20.8728 285.06 20.8452 284.57 20.8548V24.684C284.154 24.5568 283.72 24.4932 283.283 24.4932C280.943 24.4932 279.046 26.3148 279.046 28.5624C279.048 30.1524 279.995 31.5288 281.378 32.1984Z" fill="#EC407A"/>
<path fill-rule="evenodd" clip-rule="evenodd" d="M292.56 18.756C294.529 20.106 296.939 20.9016 299.543 20.9016V17.1132C298.09 16.8156 296.803 16.0872 295.836 15.0732C294.18 14.0808 292.986 12.4428 292.636 10.5264H288.988V29.748C288.979 31.9884 287.086 33.8028 284.751 33.8028C283.374 33.8028 282.152 33.174 281.378 32.1984C279.995 31.5288 279.048 30.1524 279.046 28.5624C279.046 26.3148 280.943 24.4932 283.283 24.4932C283.732 24.4932 284.164 24.5604 284.57 24.684V20.8548C279.545 20.9544 275.505 24.8988 275.505 29.7492C275.505 32.1708 276.511 34.3656 278.145 35.9688C279.618 36.9192 281.393 37.4736 283.301 37.4736C288.416 37.4736 292.563 33.4908 292.563 28.578L292.56 18.756Z" fill="white"/>
<path fill-rule="evenodd" clip-rule="evenodd" d="M299.543 17.1132V16.0896C298.232 16.092 296.948 15.7404 295.836 15.0732C296.82 16.1088 298.116 16.8204 299.543 17.1132ZM292.636 10.5264C292.603 10.3428 292.578 10.1592 292.56 9.9732V9.354H287.52V28.5768C287.513 30.8172 285.618 32.6316 283.283 32.6316C282.598 32.6316 281.951 32.4768 281.378 32.1984C282.152 33.174 283.374 33.8028 284.751 33.8028C287.086 33.8028 288.979 31.9884 288.988 29.748V10.5264H292.636ZM284.57 20.8548V19.7652C284.149 19.71 283.724 19.6824 283.298 19.6824C278.182 19.6824 274.036 23.6652 274.036 28.578C274.036 31.6584 275.666 34.3716 278.142 35.9676C276.509 34.3644 275.502 32.1708 275.502 29.7492C275.502 24.8988 279.545 20.9544 284.57 20.8548Z" fill="#81D4FA"/>
</g>
</svg>
