<?xml version="1.0" encoding="UTF-8"?>
<svg xmlns="http://www.w3.org/2000/svg" width="34" height="25" viewBox="0 0 34 25" fill="none">
  <path d="M32.6081 20.6675C32.2754 22.4 30.8612 23.72 29.1143 23.9675C26.3693 24.38 21.7942 24.875 16.6368 24.875C11.5626 24.875 6.98743 24.38 4.15918 23.9675C2.41232 23.72 0.998202 22.4 0.665466 20.6675C0.332731 18.77 0 15.965 0 12.5C0 9.035 0.332731 6.23 0.665466 4.3325C0.998202 2.6 2.41232 1.28 4.15918 1.0325C6.90425 0.620001 11.4794 0.125 16.6368 0.125C21.7942 0.125 26.2861 0.620001 29.1143 1.0325C30.8612 1.28 32.2754 2.6 32.6081 4.3325C32.9408 6.23 33.3568 9.035 33.3568 12.5C33.2736 15.965 32.9408 18.77 32.6081 20.6675Z" fill="#FF3D00"></path>
  <path d="M13.3094 18.275V6.725L23.2915 12.5L13.3094 18.275Z" fill="white"></path>
</svg>
